<svg width="34" height="43" viewBox="0 0 34 43" fill="none" xmlns="http://www.w3.org/2000/svg">
<path d="M25.7024 7.63853C23.2456 4.84735 20.481 2.33353 17.4594 0.143409C17.3235 0.0500581 17.1617 0 16.996 0C16.8302 0 16.6684 0.0500581 16.5325 0.143409C13.5137 2.33399 10.7518 4.8478 8.29762 7.63853C2.86774 13.778 0 20.222 0 26.2778C0 30.7128 1.79107 34.9662 4.97918 38.1022C8.1673 41.2382 12.4913 43 17 43C21.5087 43 25.8327 41.2382 29.0208 38.1022C32.2089 34.9662 34 30.7128 34 26.2778C34 20.222 31.1323 13.778 25.7024 7.63853ZM17 41.4074C12.922 41.4032 9.01232 39.8078 6.12876 36.9714C3.2452 34.135 1.62333 30.2891 1.61905 26.2778C1.61905 19.1311 5.89941 12.7806 9.49167 8.71353C11.7528 6.16504 14.2682 3.84616 17 1.79174C19.7322 3.84867 22.2476 6.17023 24.5083 8.7215C28.1006 12.7806 32.381 19.1311 32.381 26.2778C32.3767 30.2891 30.7548 34.135 27.8712 36.9714C24.9877 39.8078 21.078 41.4032 17 41.4074Z" fill="#232323"/>
<path d="M17 41.4074C12.922 41.4032 9.01232 39.8078 6.12876 36.9714C3.2452 34.135 1.62333 30.2891 1.61905 26.2778C1.61905 19.1311 5.89941 12.7806 9.49167 8.71353C11.7528 6.16504 14.2682 3.84616 17 1.79174C19.7322 3.84867 22.2476 6.17023 24.5083 8.7215C28.1006 12.7806 32.381 19.1311 32.381 26.2778C32.3767 30.2891 30.7548 34.135 27.8712 36.9714C24.9877 39.8078 21.078 41.4032 17 41.4074Z" fill="#232323"/>
<path d="M27.2393 24.5038C27.2393 24.7289 27.1499 24.9447 26.9907 25.1039C26.8315 25.2631 26.6157 25.3525 26.3906 25.3525H17.9037V33.8393C17.9037 34.0644 17.8143 34.2803 17.6552 34.4394C17.496 34.5986 17.2801 34.688 17.0551 34.688C16.83 34.688 16.6141 34.5986 16.455 34.4394C16.2958 34.2803 16.2064 34.0644 16.2064 33.8393V25.3525H7.71953C7.49445 25.3525 7.27858 25.2631 7.11942 25.1039C6.96026 24.9447 6.87085 24.7289 6.87085 24.5038C6.87085 24.2787 6.96026 24.0628 7.11942 23.9037C7.27858 23.7445 7.49445 23.6551 7.71953 23.6551H16.2064V15.1683C16.2064 14.9432 16.2958 14.7273 16.455 14.5682C16.6141 14.409 16.83 14.3196 17.0551 14.3196C17.2801 14.3196 17.496 14.409 17.6552 14.5682C17.8143 14.7273 17.9037 14.9432 17.9037 15.1683V23.6551H26.3906C26.6157 23.6551 26.8315 23.7445 26.9907 23.9037C27.1499 24.0628 27.2393 24.2787 27.2393 24.5038Z" fill="#F7F7F7"/>
</svg>
