<svg width="29" height="30" viewBox="0 0 29 30" fill="none" xmlns="http://www.w3.org/2000/svg">
<path d="M13.312 17.3756C13.2093 17.2213 13.0701 17.0948 12.9067 17.0072C12.7433 16.9197 12.5608 16.8739 12.3754 16.8739C12.1901 16.8739 12.0076 16.9197 11.8442 17.0072C11.6808 17.0948 11.5416 17.2213 11.4389 17.3756L8.50684 21.7758L7.13434 19.6411C7.03248 19.4826 6.89245 19.3522 6.72709 19.2619C6.56173 19.1716 6.37634 19.1243 6.18794 19.1243C5.99953 19.1243 5.81414 19.1716 5.64879 19.2619C5.48343 19.3522 5.34339 19.4826 5.24153 19.6411L0.179031 27.5161C0.0696298 27.6861 0.00803951 27.8823 0.000735003 28.0843C-0.0065695 28.2863 0.0406815 28.4866 0.137521 28.664C0.23436 28.8414 0.37721 28.9895 0.551053 29.0926C0.724896 29.1957 0.923311 29.2501 1.12544 29.25H19.1254C19.3292 29.2501 19.5291 29.1949 19.7039 29.0903C19.8787 28.9857 20.0218 28.8356 20.118 28.656C20.2141 28.4764 20.2597 28.274 20.2498 28.0706C20.24 27.8671 20.1751 27.6701 20.062 27.5006L13.312 17.3756ZM3.18559 27L6.18794 22.3298L7.54216 24.4392C7.64316 24.5965 7.78174 24.7261 7.94538 24.8163C8.10903 24.9066 8.29258 24.9546 8.47946 24.9562C8.66633 24.9577 8.85065 24.9127 9.01575 24.8251C9.18086 24.7376 9.32155 24.6102 9.42512 24.4547L12.3782 20.0292L17.0231 27H3.18559ZM27.795 8.20406L19.92 0.329063C19.7092 0.118482 19.4234 0.000138095 19.1254 0H5.62544C5.0287 0 4.4564 0.237053 4.03445 0.65901C3.61249 1.08097 3.37544 1.65326 3.37544 2.25V14.625C3.37544 14.9234 3.49396 15.2095 3.70494 15.4205C3.91592 15.6315 4.20207 15.75 4.50044 15.75C4.79881 15.75 5.08495 15.6315 5.29593 15.4205C5.50691 15.2095 5.62544 14.9234 5.62544 14.625V2.25H18.0004V9C18.0004 9.29837 18.119 9.58452 18.3299 9.7955C18.5409 10.0065 18.8271 10.125 19.1254 10.125H25.8754V27H24.7504C24.4521 27 24.1659 27.1185 23.9549 27.3295C23.744 27.5405 23.6254 27.8266 23.6254 28.125C23.6254 28.4234 23.744 28.7095 23.9549 28.9205C24.1659 29.1315 24.4521 29.25 24.7504 29.25H25.8754C26.4722 29.25 27.0445 29.0129 27.4664 28.591C27.8884 28.169 28.1254 27.5967 28.1254 27V9C28.1256 8.85222 28.0966 8.70586 28.0401 8.56929C27.9836 8.43272 27.9008 8.30862 27.7964 8.20406H27.795ZM20.2504 3.84047L24.285 7.875H20.2504V3.84047Z" fill="#232323"/>
</svg>
