<svg width="36" height="36" viewBox="0 0 36 36" fill="none" xmlns="http://www.w3.org/2000/svg">
<path d="M30.0459 11.5791L22.1709 3.70406C22.0664 3.59962 21.9423 3.51681 21.8057 3.46035C21.6691 3.40389 21.5228 3.37488 21.375 3.375H7.875C7.27826 3.375 6.70597 3.61205 6.28401 4.03401C5.86205 4.45597 5.625 5.02826 5.625 5.625V30.375C5.625 30.9717 5.86205 31.544 6.28401 31.966C6.70597 32.3879 7.27826 32.625 7.875 32.625H28.125C28.7217 32.625 29.294 32.3879 29.716 31.966C30.1379 31.544 30.375 30.9717 30.375 30.375V12.375C30.3751 12.2272 30.3461 12.0809 30.2897 11.9443C30.2332 11.8077 30.1504 11.6836 30.0459 11.5791ZM22.5 7.21547L26.5345 11.25H22.5V7.21547ZM28.125 30.375H7.875V5.625H20.25V12.375C20.25 12.6734 20.3685 12.9595 20.5795 13.1705C20.7905 13.3815 21.0766 13.5 21.375 13.5H28.125V30.375ZM22.5 21.375C22.5 21.6734 22.3815 21.9595 22.1705 22.1705C21.9595 22.3815 21.6734 22.5 21.375 22.5H19.125V24.75C19.125 25.0484 19.0065 25.3345 18.7955 25.5455C18.5845 25.7565 18.2984 25.875 18 25.875C17.7016 25.875 17.4155 25.7565 17.2045 25.5455C16.9935 25.3345 16.875 25.0484 16.875 24.75V22.5H14.625C14.3266 22.5 14.0405 22.3815 13.8295 22.1705C13.6185 21.9595 13.5 21.6734 13.5 21.375C13.5 21.0766 13.6185 20.7905 13.8295 20.5795C14.0405 20.3685 14.3266 20.25 14.625 20.25H16.875V18C16.875 17.7016 16.9935 17.4155 17.2045 17.2045C17.4155 16.9935 17.7016 16.875 18 16.875C18.2984 16.875 18.5845 16.9935 18.7955 17.2045C19.0065 17.4155 19.125 17.7016 19.125 18V20.25H21.375C21.6734 20.25 21.9595 20.3685 22.1705 20.5795C22.3815 20.7905 22.5 21.0766 22.5 21.375Z" fill="#767676" fill-opacity="0.31"/>
</svg>
