<svg width="30" height="30" viewBox="0 0 30 30" fill="none" xmlns="http://www.w3.org/2000/svg">
<path d="M14.625 0C11.7325 0 8.90486 0.857741 6.49979 2.46476C4.09472 4.07177 2.2202 6.35589 1.11327 9.02825C0.00633679 11.7006 -0.283287 14.6412 0.281022 17.4782C0.845331 20.3152 2.23823 22.9211 4.28357 24.9664C6.32891 27.0118 8.93484 28.4047 11.7718 28.969C14.6088 29.5333 17.5494 29.2437 20.2218 28.1367C22.8941 27.0298 25.1782 25.1553 26.7852 22.7502C28.3923 20.3451 29.25 17.5176 29.25 14.625C29.2459 10.7475 27.7038 7.02992 24.9619 4.28809C22.2201 1.54625 18.5025 0.00409475 14.625 0ZM14.625 27C12.1775 27 9.78488 26.2742 7.74982 24.9144C5.71477 23.5547 4.12863 21.6219 3.192 19.3607C2.25536 17.0995 2.0103 14.6113 2.48779 12.2108C2.96528 9.81024 4.14389 7.60523 5.87456 5.87455C7.60524 4.14388 9.81025 2.96527 12.2108 2.48778C14.6113 2.01029 17.0995 2.25536 19.3607 3.19199C21.622 4.12863 23.5547 5.71476 24.9144 7.74982C26.2742 9.78488 27 12.1775 27 14.625C26.9963 17.9059 25.6913 21.0514 23.3713 23.3713C21.0514 25.6913 17.9059 26.9963 14.625 27ZM21.375 14.625C21.375 14.9234 21.2565 15.2095 21.0455 15.4205C20.8345 15.6315 20.5484 15.75 20.25 15.75H11.7155L14.2959 18.3291C14.4005 18.4336 14.4834 18.5577 14.5399 18.6942C14.5965 18.8308 14.6256 18.9772 14.6256 19.125C14.6256 19.2728 14.5965 19.4192 14.5399 19.5558C14.4834 19.6923 14.4005 19.8164 14.2959 19.9209C14.1914 20.0255 14.0673 20.1084 13.9308 20.1649C13.7942 20.2215 13.6478 20.2506 13.5 20.2506C13.3522 20.2506 13.2058 20.2215 13.0692 20.1649C12.9327 20.1084 12.8086 20.0255 12.7041 19.9209L8.20407 15.4209C8.09947 15.3165 8.01649 15.1924 7.95988 15.0558C7.90326 14.9192 7.87412 14.7728 7.87412 14.625C7.87412 14.4772 7.90326 14.3308 7.95988 14.1942C8.01649 14.0576 8.09947 13.9335 8.20407 13.8291L12.7041 9.32906C12.9152 9.11797 13.2015 8.99937 13.5 8.99937C13.7985 8.99937 14.0848 9.11797 14.2959 9.32906C14.507 9.54016 14.6256 9.82647 14.6256 10.125C14.6256 10.4235 14.507 10.7098 14.2959 10.9209L11.7155 13.5H20.25C20.5484 13.5 20.8345 13.6185 21.0455 13.8295C21.2565 14.0405 21.375 14.3266 21.375 14.625Z" fill="black"/>
</svg>
