<svg width="46" height="46" viewBox="0 0 46 46" fill="none" xmlns="http://www.w3.org/2000/svg">
<rect width="46" height="46" rx="8" fill="#075D96"/>
<path d="M37.7803 12.6045C37.921 12.4609 38 12.2661 38 12.0631C38 11.86 37.921 11.6652 37.7803 11.5216C37.6397 11.378 37.4489 11.2973 37.25 11.2973H35.75V9.76576C35.75 9.56267 35.671 9.3679 35.5303 9.22429C35.3897 9.08068 35.1989 9 35 9C34.8011 9 34.6103 9.08068 34.4697 9.22429C34.329 9.3679 34.25 9.56267 34.25 9.76576V11.2973H32.75C32.5511 11.2973 32.3603 11.378 32.2197 11.5216C32.079 11.6652 32 11.86 32 12.0631C32 12.2661 32.079 12.4609 32.2197 12.6045C32.3603 12.7481 32.5511 12.8288 32.75 12.8288H34.25V14.3603C34.25 14.5634 34.329 14.7582 34.4697 14.9018C34.6103 15.0454 34.8011 15.1261 35 15.1261C35.1989 15.1261 35.3897 15.0454 35.5303 14.9018C35.671 14.7582 35.75 14.5634 35.75 14.3603V12.8288H37.25C37.4489 12.8288 37.6397 12.7481 37.7803 12.6045Z" fill="#F7F7F7"/>
<path d="M34.2003 24.9272C34.1215 24.9875 34.0318 25.0314 33.9364 25.0564C33.841 25.0813 33.7417 25.0868 33.6442 25.0726C33.5467 25.0584 33.4529 25.0247 33.3682 24.9735C33.2834 24.9222 33.2094 24.8545 33.1503 24.774C32.6982 24.1536 32.1098 23.6502 31.4324 23.3044C30.7551 22.9586 30.0076 22.78 29.2503 22.783C29.1028 22.783 28.9586 22.7386 28.8357 22.6553C28.7128 22.5721 28.6167 22.4537 28.5593 22.315C28.5204 22.2207 28.5004 22.1195 28.5004 22.0173C28.5004 21.915 28.5204 21.8138 28.5593 21.7196C28.6167 21.5808 28.7128 21.4624 28.8357 21.3792C28.9586 21.2959 29.1028 21.2515 29.2503 21.2515C29.6711 21.2515 30.0835 21.1309 30.4406 20.9036C30.7976 20.6763 31.0851 20.3512 31.2704 19.9654C31.4556 19.5796 31.5312 19.1485 31.4885 18.7211C31.4458 18.2937 31.2865 17.887 31.0288 17.5473C30.7711 17.2077 30.4253 16.9486 30.0306 16.7996C29.6359 16.6505 29.2082 16.6175 28.796 16.7042C28.3838 16.7909 28.0038 16.9939 27.6989 17.2901C27.3941 17.5863 27.1767 17.9639 27.0715 18.3799C27.0469 18.4773 27.0037 18.5688 26.9445 18.6492C26.8852 18.7296 26.811 18.7973 26.7261 18.8484C26.6413 18.8995 26.5474 18.933 26.4498 18.9471C26.3522 18.9611 26.2529 18.9554 26.1575 18.9303C26.0621 18.9051 25.9724 18.8611 25.8937 18.8005C25.815 18.74 25.7487 18.6643 25.6986 18.5776C25.6486 18.491 25.6157 18.3951 25.602 18.2955C25.5882 18.1958 25.5938 18.0944 25.6184 17.997C25.7644 17.4201 26.0403 16.886 26.4241 16.4371C26.8079 15.9882 27.289 15.637 27.8291 15.4114C28.3692 15.1857 28.9534 15.0919 29.5353 15.1374C30.1172 15.1829 30.6807 15.3664 31.1809 15.6733C31.681 15.9802 32.1042 16.4021 32.4166 16.9054C32.729 17.4087 32.922 17.9795 32.9803 18.5724C33.0387 19.1652 32.9607 19.7638 32.7526 20.3205C32.5444 20.8771 32.2119 21.3765 31.7815 21.7789C32.8014 22.2298 33.6879 22.9452 34.3531 23.8541C34.4122 23.9348 34.4551 24.0266 34.4794 24.1242C34.5037 24.2218 34.5089 24.3233 34.4947 24.423C34.4805 24.5227 34.4472 24.6185 34.3967 24.705C34.3462 24.7915 34.2794 24.867 34.2003 24.9272ZM29.149 30.8235C29.2033 30.9107 29.2397 31.0082 29.2562 31.1101C29.2726 31.212 29.2686 31.3162 29.2446 31.4165C29.2205 31.5168 29.1768 31.6112 29.1161 31.6938C29.0554 31.7764 28.979 31.8456 28.8914 31.8973C28.8039 31.949 28.7069 31.9821 28.6065 31.9945C28.5061 32.007 28.4043 31.9986 28.3071 31.9698C28.21 31.941 28.1195 31.8925 28.0412 31.8271C27.963 31.7617 27.8984 31.6808 27.8515 31.5893C27.3791 30.7725 26.7062 30.0956 25.8993 29.6253C25.0924 29.1551 24.1794 28.9077 23.2503 28.9077C22.3212 28.9077 21.4082 29.1551 20.6013 29.6253C19.7944 30.0956 19.1215 30.7725 18.649 31.5893C18.6021 31.6808 18.5376 31.7617 18.4593 31.8271C18.381 31.8925 18.2906 31.941 18.1934 31.9698C18.0963 31.9986 17.9944 32.007 17.894 31.9945C17.7936 31.9821 17.6967 31.949 17.6091 31.8973C17.5216 31.8456 17.4451 31.7764 17.3844 31.6938C17.3238 31.6112 17.2801 31.5168 17.256 31.4165C17.2319 31.3162 17.228 31.212 17.2444 31.1101C17.2608 31.0082 17.2973 30.9107 17.3515 30.8235C18.0787 29.5479 19.1873 28.5441 20.5147 27.9596C19.7678 27.3757 19.2189 26.5676 18.9451 25.6487C18.6713 24.7299 18.6864 23.7465 18.9883 22.8369C19.2902 21.9273 19.8637 21.1371 20.6282 20.5775C21.3926 20.0179 22.3096 19.7169 23.2503 19.7169C24.1909 19.7169 25.1079 20.0179 25.8724 20.5775C26.6369 21.1371 27.2103 21.9273 27.5122 22.8369C27.8141 23.7465 27.8292 24.7299 27.5555 25.6487C27.2817 26.5676 26.7328 27.3757 25.9859 27.9596C27.3132 28.5441 28.4219 29.5479 29.149 30.8235ZM23.2503 27.3776C23.8436 27.3776 24.4236 27.198 24.917 26.8614C25.4103 26.5248 25.7949 26.0464 26.0219 25.4867C26.249 24.927 26.3084 24.3112 26.1926 23.717C26.0769 23.1228 25.7912 22.577 25.3716 22.1486C24.952 21.7203 24.4175 21.4285 23.8356 21.3104C23.2536 21.1922 22.6504 21.2528 22.1022 21.4847C21.5541 21.7165 21.0855 22.1091 20.7559 22.6128C20.4262 23.1165 20.2503 23.7087 20.2503 24.3146C20.2503 25.1269 20.5664 25.906 21.129 26.4805C21.6916 27.0549 22.4546 27.3776 23.2503 27.3776ZM18.0003 22.0173C18.0003 21.8142 17.9213 21.6194 17.7806 21.4758C17.64 21.3322 17.4492 21.2515 17.2503 21.2515C16.8295 21.2515 16.4171 21.1309 16.06 20.9036C15.7029 20.6763 15.4154 20.3512 15.2302 19.9654C15.045 19.5796 14.9694 19.1485 15.0121 18.7211C15.0548 18.2937 15.214 17.887 15.4718 17.5473C15.7295 17.2077 16.0753 16.9486 16.47 16.7996C16.8647 16.6505 17.2924 16.6175 17.7046 16.7042C18.1167 16.7909 18.4968 16.9939 18.8016 17.2901C19.1065 17.5863 19.3238 17.9639 19.429 18.3799C19.4788 18.5766 19.603 18.7452 19.7744 18.8484C19.9458 18.9516 20.1504 18.9811 20.3431 18.9303C20.5358 18.8795 20.7008 18.7527 20.8019 18.5776C20.903 18.4026 20.9319 18.1938 20.8822 17.997C20.7361 17.4201 20.4603 16.886 20.0765 16.4371C19.6927 15.9882 19.2116 15.637 18.6715 15.4114C18.1314 15.1857 17.5471 15.0919 16.9652 15.1374C16.3834 15.1829 15.8199 15.3664 15.3197 15.6733C14.8195 15.9802 14.3964 16.4021 14.084 16.9054C13.7716 17.4087 13.5786 17.9795 13.5202 18.5724C13.4619 19.1652 13.5399 19.7638 13.748 20.3205C13.9561 20.8771 14.2886 21.3765 14.719 21.7789C13.7002 22.2302 12.8147 22.9456 12.1503 23.8541C12.0308 24.0166 11.9794 24.2209 12.0075 24.422C12.0355 24.6232 12.1407 24.8047 12.2998 24.9267C12.4589 25.0487 12.659 25.1011 12.856 25.0725C13.053 25.0438 13.2308 24.9365 13.3503 24.774C13.8023 24.1536 14.3907 23.6502 15.0681 23.3044C15.7455 22.9586 16.4929 22.78 17.2503 22.783C17.4492 22.783 17.64 22.7023 17.7806 22.5587C17.9213 22.4151 18.0003 22.2204 18.0003 22.0173Z" fill="#F7F7F7"/>
</svg>
