<svg width="70" height="70" viewBox="0 0 70 70" fill="none" xmlns="http://www.w3.org/2000/svg">
<rect width="70" height="70" rx="5" fill="white"/>
<path d="M52.6958 23.8583C52.8905 23.6647 53 23.4022 53 23.1285C53 22.8547 52.8905 22.5922 52.6958 22.3986C52.501 22.2051 52.2369 22.0963 51.9615 22.0963H49.8846V20.0321C49.8846 19.7584 49.7752 19.4959 49.5804 19.3023C49.3857 19.1087 49.1215 19 48.8461 19C48.5707 19 48.3066 19.1087 48.1118 19.3023C47.9171 19.4959 47.8076 19.7584 47.8076 20.0321V22.0963H45.7307C45.4553 22.0963 45.1912 22.2051 44.9964 22.3986C44.8017 22.5922 44.6923 22.8547 44.6923 23.1285C44.6923 23.4022 44.8017 23.6647 44.9964 23.8583C45.1912 24.0518 45.4553 24.1606 45.7307 24.1606H47.8076V26.2248C47.8076 26.4985 47.9171 26.7611 48.1118 26.9546C48.3066 27.1482 48.5707 27.2569 48.8461 27.2569C49.1215 27.2569 49.3857 27.1482 49.5804 26.9546C49.7752 26.7611 49.8846 26.4985 49.8846 26.2248V24.1606H51.9615C52.2369 24.1606 52.501 24.0518 52.6958 23.8583Z" fill="#232323"/>
<path d="M47.7389 40.4669C47.6298 40.5482 47.5056 40.6074 47.3735 40.6411C47.2414 40.6747 47.1039 40.6821 46.9689 40.663C46.8339 40.6438 46.704 40.5984 46.5867 40.5293C46.4693 40.4603 46.3668 40.3689 46.285 40.2605C45.6591 39.4243 44.8444 38.7459 43.9065 38.2798C42.9685 37.8137 41.9336 37.573 40.885 37.577C40.6808 37.577 40.4811 37.5171 40.311 37.4049C40.1408 37.2927 40.0077 37.1331 39.9283 36.9461C39.8744 36.8191 39.8466 36.6827 39.8466 36.5449C39.8466 36.4071 39.8744 36.2706 39.9283 36.1436C40.0077 35.9567 40.1408 35.7971 40.311 35.6849C40.4811 35.5726 40.6808 35.5128 40.885 35.5128C41.4677 35.5127 42.0387 35.3503 42.5331 35.0439C43.0275 34.7374 43.4256 34.2994 43.6821 33.7794C43.9385 33.2594 44.0432 32.6783 43.984 32.1022C43.9249 31.5261 43.7044 30.978 43.3476 30.5202C42.9907 30.0624 42.5119 29.7132 41.9654 29.5123C41.4189 29.3114 40.8267 29.2669 40.256 29.3838C39.6853 29.5007 39.1591 29.7743 38.737 30.1735C38.3149 30.5727 38.0139 31.0816 37.8683 31.6423C37.8342 31.7736 37.7744 31.897 37.6923 32.0053C37.6103 32.1137 37.5076 32.2049 37.39 32.2738C37.2725 32.3427 37.1425 32.3879 37.0074 32.4068C36.8723 32.4257 36.7348 32.4181 36.6027 32.3842C36.4705 32.3503 36.3464 32.2909 36.2374 32.2093C36.1284 32.1278 36.0366 32.0257 35.9673 31.9089C35.898 31.7921 35.8525 31.6628 35.8335 31.5285C35.8144 31.3943 35.8222 31.2576 35.8563 31.1263C36.0584 30.3487 36.4404 29.6288 36.9718 29.0238C37.5032 28.4188 38.1693 27.9454 38.9172 27.6413C39.665 27.3372 40.474 27.2107 41.2797 27.272C42.0854 27.3333 42.8655 27.5806 43.5581 27.9943C44.2507 28.408 44.8366 28.9767 45.2691 29.655C45.7017 30.3334 45.9689 31.1027 46.0497 31.9018C46.1305 32.7008 46.0225 33.5076 45.7343 34.2579C45.4461 35.0082 44.9858 35.6813 44.3898 36.2236C45.8019 36.8313 47.0294 37.7956 47.9504 39.0207C48.0323 39.1294 48.0917 39.2531 48.1253 39.3846C48.159 39.5162 48.1662 39.6531 48.1466 39.7874C48.1269 39.9218 48.0808 40.0509 48.0108 40.1675C47.9408 40.2841 47.8484 40.3859 47.7389 40.4669ZM40.7448 48.4142C40.82 48.5317 40.8704 48.663 40.8931 48.8004C40.9159 48.9378 40.9104 49.0783 40.8771 49.2135C40.8438 49.3487 40.7833 49.4758 40.6992 49.5871C40.6152 49.6985 40.5094 49.7918 40.3881 49.8615C40.2669 49.9312 40.1327 49.9757 39.9937 49.9925C39.8546 50.0093 39.7136 49.9979 39.5791 49.9592C39.4446 49.9204 39.3194 49.8549 39.211 49.7668C39.1025 49.6787 39.0132 49.5697 38.9483 49.4463C38.2941 48.3454 37.3624 47.433 36.2452 46.7992C35.128 46.1654 33.8637 45.832 32.5773 45.832C31.2909 45.832 30.0267 46.1654 28.9094 46.7992C27.7922 47.433 26.8605 48.3454 26.2064 49.4463C26.1414 49.5697 26.0521 49.6787 25.9437 49.7668C25.8353 49.8549 25.71 49.9204 25.5755 49.9592C25.441 49.9979 25.3 50.0093 25.161 49.9925C25.0219 49.9757 24.8878 49.9312 24.7665 49.8615C24.6452 49.7918 24.5394 49.6985 24.4554 49.5871C24.3714 49.4758 24.3109 49.3487 24.2775 49.2135C24.2442 49.0783 24.2388 48.9378 24.2615 48.8004C24.2842 48.663 24.3347 48.5317 24.4098 48.4142C25.4166 46.6949 26.9517 45.342 28.7895 44.5541C27.7554 43.7672 26.9954 42.6779 26.6163 41.4395C26.2372 40.201 26.2581 38.8756 26.6761 37.6496C27.0941 36.4236 27.8882 35.3586 28.9467 34.6043C30.0052 33.8501 31.2749 33.4444 32.5773 33.4444C33.8798 33.4444 35.1495 33.8501 36.2079 34.6043C37.2664 35.3586 38.0605 36.4236 38.4785 37.6496C38.8965 38.8756 38.9174 40.201 38.5383 41.4395C38.1593 42.6779 37.3992 43.7672 36.3651 44.5541C38.2029 45.342 39.738 46.6949 40.7448 48.4142ZM32.5773 43.7697C33.3989 43.7697 34.202 43.5276 34.8851 43.0739C35.5682 42.6203 36.1006 41.9755 36.415 41.2211C36.7294 40.4667 36.8116 39.6367 36.6513 38.8358C36.4911 38.035 36.0955 37.2993 35.5145 36.722C34.9336 36.1446 34.1935 35.7514 33.3877 35.5921C32.5819 35.4328 31.7467 35.5146 30.9877 35.827C30.2287 36.1395 29.58 36.6687 29.1235 37.3476C28.6671 38.0265 28.4235 38.8247 28.4235 39.6412C28.4235 40.7362 28.8611 41.7863 29.6401 42.5605C30.4191 43.3347 31.4756 43.7697 32.5773 43.7697ZM25.3081 36.5449C25.3081 36.2711 25.1987 36.0086 25.0039 35.8151C24.8092 35.6215 24.545 35.5128 24.2696 35.5128C23.687 35.5127 23.116 35.3503 22.6215 35.0439C22.1271 34.7374 21.7291 34.2994 21.4726 33.7794C21.2161 33.2594 21.1115 32.6783 21.1706 32.1022C21.2297 31.5261 21.4502 30.978 21.8071 30.5202C22.1639 30.0624 22.6427 29.7132 23.1892 29.5123C23.7357 29.3114 24.3279 29.2669 24.8986 29.3838C25.4693 29.5007 25.9956 29.7743 26.4176 30.1735C26.8397 30.5727 27.1407 31.0816 27.2864 31.6423C27.3552 31.9075 27.5272 32.1346 27.7646 32.2738C28.0019 32.4129 28.2852 32.4526 28.552 32.3842C28.8188 32.3157 29.0473 32.1448 29.1873 31.9089C29.3273 31.673 29.3672 31.3915 29.2984 31.1263C29.0962 30.3487 28.7142 29.6288 28.1828 29.0238C27.6514 28.4188 26.9853 27.9454 26.2374 27.6413C25.4896 27.3372 24.6806 27.2107 23.875 27.272C23.0693 27.3333 22.2891 27.5806 21.5965 27.9943C20.904 28.408 20.3181 28.9767 19.8855 29.655C19.453 30.3334 19.1857 31.1027 19.1049 31.9018C19.0242 32.7008 19.1322 33.5076 19.4203 34.2579C19.7085 35.0082 20.1689 35.6813 20.7648 36.2236C19.3542 36.8319 18.1281 37.7961 17.2081 39.0207C17.0427 39.2397 16.9715 39.515 17.0104 39.7861C17.0492 40.0572 17.1948 40.3019 17.4151 40.4663C17.6355 40.6307 17.9125 40.7014 18.1853 40.6628C18.458 40.6242 18.7042 40.4795 18.8696 40.2605C19.4955 39.4243 20.3102 38.7459 21.2482 38.2798C22.1861 37.8137 23.221 37.573 24.2696 37.577C24.545 37.577 24.8092 37.4683 25.0039 37.2747C25.1987 37.0811 25.3081 36.8186 25.3081 36.5449Z" fill="#232323"/>
</svg>
