<svg width="26" height="27" viewBox="0 0 26 27" fill="none" xmlns="http://www.w3.org/2000/svg">
<path d="M7.6947 19.5231C7.804 19.6051 7.92843 19.6648 8.06086 19.6988C8.19329 19.7327 8.33113 19.7403 8.46648 19.721C8.60184 19.7017 8.73206 19.6559 8.84969 19.5863C8.96731 19.5167 9.07005 19.4247 9.152 19.3154C9.78167 18.4771 10.5982 17.7966 11.5368 17.328C12.4755 16.8594 13.5105 16.6154 14.56 16.6154C15.6095 16.6154 16.6445 16.8594 17.5832 17.328C18.5218 17.7966 19.3383 18.4771 19.968 19.3154C20.0499 19.4245 20.1526 19.5164 20.2701 19.5859C20.3876 19.6554 20.5177 19.701 20.6529 19.7203C20.7881 19.7396 20.9258 19.7321 21.0581 19.6983C21.1904 19.6644 21.3147 19.6049 21.424 19.5231C21.5333 19.4413 21.6253 19.3387 21.6949 19.2214C21.7645 19.1041 21.8102 18.9742 21.8295 18.8392C21.8489 18.7042 21.8414 18.5667 21.8075 18.4346C21.7736 18.3025 21.7139 18.1783 21.632 18.0692C20.7111 16.8364 19.4831 15.8657 18.07 15.2537C18.8444 14.5477 19.3869 13.6245 19.6264 12.6051C19.866 11.5857 19.7912 10.5179 19.4121 9.54167C19.0329 8.56547 18.367 7.72654 17.5018 7.13498C16.6366 6.54341 15.6125 6.22686 14.5639 6.22686C13.5153 6.22686 12.4912 6.54341 11.626 7.13498C10.7608 7.72654 10.0949 8.56547 9.71575 9.54167C9.33658 10.5179 9.26185 11.5857 9.50135 12.6051C9.74086 13.6245 10.2834 14.5477 11.0578 15.2537C9.64189 15.8646 8.41105 16.8353 7.488 18.0692C7.32237 18.2894 7.25109 18.5663 7.28986 18.8389C7.32862 19.1115 7.47424 19.3576 7.6947 19.5231ZM11.44 11.4231C11.44 10.8069 11.623 10.2046 11.9658 9.69226C12.3086 9.17994 12.7959 8.78063 13.366 8.54484C13.9361 8.30904 14.5635 8.24735 15.1687 8.36755C15.7739 8.48776 16.3298 8.78447 16.7662 9.22017C17.2025 9.65586 17.4997 10.211 17.6201 10.8153C17.7404 11.4196 17.6786 12.046 17.4425 12.6153C17.2064 13.1845 16.8065 13.6711 16.2934 14.0134C15.7803 14.3557 15.1771 14.5385 14.56 14.5385C13.7325 14.5385 12.9389 14.2102 12.3538 13.626C11.7687 13.0417 11.44 12.2493 11.44 11.4231ZM23.92 0H5.2C4.64835 0 4.11929 0.218818 3.72922 0.608317C3.33914 0.997815 3.12 1.52609 3.12 2.07692V5.19231H1.04C0.764175 5.19231 0.499647 5.30172 0.304609 5.49647C0.109571 5.69122 0 5.95535 0 6.23077C0 6.50619 0.109571 6.77032 0.304609 6.96507C0.499647 7.15982 0.764175 7.26923 1.04 7.26923H3.12V12.4615H1.04C0.764175 12.4615 0.499647 12.5709 0.304609 12.7657C0.109571 12.9604 0 13.2246 0 13.5C0 13.7754 0.109571 14.0396 0.304609 14.2343C0.499647 14.4291 0.764175 14.5385 1.04 14.5385H3.12V19.7308H1.04C0.764175 19.7308 0.499647 19.8402 0.304609 20.0349C0.109571 20.2297 0 20.4938 0 20.7692C0 21.0446 0.109571 21.3088 0.304609 21.5035C0.499647 21.6983 0.764175 21.8077 1.04 21.8077H3.12V24.9231C3.12 25.4739 3.33914 26.0022 3.72922 26.3917C4.11929 26.7812 4.64835 27 5.2 27H23.92C24.4717 27 25.0007 26.7812 25.3908 26.3917C25.7809 26.0022 26 25.4739 26 24.9231V2.07692C26 1.52609 25.7809 0.997815 25.3908 0.608317C25.0007 0.218818 24.4717 0 23.92 0ZM23.92 24.9231H5.2V2.07692H23.92V24.9231Z" fill="black"/>
</svg>
