<svg width="26" height="25" viewBox="0 0 26 25" fill="none" xmlns="http://www.w3.org/2000/svg">
<path d="M13.0011 6.73186C11.8993 6.73186 10.8222 7.07015 9.906 7.70395C8.98985 8.33775 8.2758 9.2386 7.85414 10.2926C7.43248 11.3465 7.32216 12.5063 7.53712 13.6252C7.75208 14.7441 8.28267 15.7718 9.06179 16.5785C9.84091 17.3852 10.8336 17.9345 11.9142 18.1571C12.9949 18.3797 14.1151 18.2654 15.133 17.8289C16.151 17.3923 17.0211 16.653 17.6332 15.7045C18.2454 14.7559 18.5721 13.6407 18.5721 12.4999C18.5706 10.9706 17.9832 9.50441 16.9387 8.42304C15.8943 7.34166 14.4782 6.73345 13.0011 6.73186ZM13.0011 16.3453C12.2665 16.3453 11.5485 16.1197 10.9377 15.6972C10.3269 15.2747 9.8509 14.6741 9.56979 13.9715C9.28869 13.2688 9.21514 12.4956 9.35844 11.7497C9.50175 11.0038 9.85548 10.3186 10.3749 9.78082C10.8943 9.24304 11.5561 8.8768 12.2765 8.72843C12.997 8.58005 13.7437 8.6562 14.4224 8.94725C15.101 9.2383 15.6811 9.73117 16.0892 10.3635C16.4973 10.9959 16.7151 11.7394 16.7151 12.4999C16.7151 13.5198 16.3238 14.4978 15.6273 15.219C14.9308 15.9401 13.9861 16.3453 13.0011 16.3453ZM25.7611 10.0016C25.7352 9.86624 25.6815 9.73822 25.6036 9.62625C25.5257 9.51428 25.4254 9.42099 25.3096 9.35271L21.8474 7.30987L21.8335 3.26983C21.8331 3.1307 21.8035 2.99331 21.7468 2.86717C21.6901 2.74103 21.6076 2.62913 21.505 2.53922C20.2492 1.43932 18.8029 0.596428 17.2432 0.0553542C17.1204 0.01231 16.9902 -0.00361948 16.8611 0.00859166C16.7319 0.0208028 16.6067 0.0608838 16.4934 0.126253L13.0011 2.14747L9.50528 0.122648C9.39195 0.0569106 9.26655 0.0165269 9.1372 0.00410734C9.00785 -0.00831223 8.87743 0.00750868 8.75435 0.0505474C7.1958 0.595576 5.75121 1.44168 4.49716 2.54402C4.39475 2.63381 4.31236 2.74551 4.25566 2.87143C4.19895 2.99735 4.16929 3.13451 4.1687 3.27344L4.15129 7.31708L0.689128 9.35992C0.573299 9.4282 0.473024 9.52149 0.395119 9.63346C0.317214 9.74543 0.263505 9.87345 0.237642 10.0088C-0.0792142 11.6574 -0.0792142 13.3544 0.237642 15.003C0.263505 15.1384 0.317214 15.2664 0.395119 15.3784C0.473024 15.4903 0.573299 15.5836 0.689128 15.6519L4.15129 17.6947L4.16522 21.7348C4.16564 21.8739 4.19522 22.0113 4.25193 22.1374C4.30864 22.2636 4.39112 22.3755 4.49368 22.4654C5.74956 23.5653 7.19581 24.4082 8.75551 24.9493C8.87834 24.9923 9.00851 25.0082 9.13765 24.996C9.26678 24.9838 9.39201 24.9437 9.50528 24.8784L13.0011 22.8523L16.4969 24.8772C16.6353 24.957 16.7912 24.9984 16.9496 24.9973C17.051 24.9973 17.1517 24.9802 17.2478 24.9468C18.8062 24.4025 20.2508 23.5573 21.505 22.4558C21.6074 22.366 21.6898 22.2543 21.7465 22.1284C21.8032 22.0024 21.8329 21.8653 21.8335 21.7264L21.8509 17.6827L25.3131 15.6399C25.4289 15.5716 25.5292 15.4783 25.6071 15.3663C25.685 15.2544 25.7387 15.1263 25.7646 14.991C26.0796 13.3437 26.0785 11.6484 25.7611 10.0016ZM24.0201 14.1967L20.7042 16.1494C20.5589 16.2349 20.4386 16.3595 20.356 16.5099C20.2887 16.6301 20.2179 16.7574 20.1459 16.8776C20.0538 17.0291 20.0048 17.2045 20.0043 17.3835L19.9869 21.2589C19.0957 21.9836 18.1027 22.5631 17.0424 22.9773L13.6975 21.0474C13.5586 20.9679 13.4024 20.9265 13.2437 20.9272H13.2216C13.0812 20.9272 12.9396 20.9272 12.7991 20.9272C12.633 20.923 12.4688 20.9644 12.3233 21.0474L8.97603 22.9821C7.91349 22.571 6.9178 21.9944 6.02339 21.2721L6.01062 17.4027C6.01005 17.2233 5.961 17.0477 5.86902 16.8956C5.79706 16.7755 5.72627 16.6553 5.66011 16.5279C5.57808 16.3752 5.4578 16.2481 5.31192 16.1602L1.99252 14.2027C1.82074 13.0777 1.82074 11.9317 1.99252 10.8067L5.30264 8.85041C5.44792 8.76488 5.56821 8.64033 5.65082 8.48991C5.71814 8.36974 5.78894 8.24237 5.8609 8.1222C5.95301 7.97066 6.00208 7.79534 6.0025 7.61629L6.01991 3.74089C6.91119 3.01622 7.90414 2.43674 8.96443 2.0225L12.3047 3.95239C12.4501 4.03582 12.6144 4.07732 12.7806 4.07255C12.921 4.07255 13.0626 4.07255 13.203 4.07255C13.3692 4.07685 13.5334 4.03538 13.6789 3.95239L17.0262 2.01769C18.0887 2.42875 19.0844 3.00539 19.9788 3.72767L19.9916 7.59707C19.9922 7.77647 20.0412 7.95213 20.1332 8.10417C20.2051 8.22434 20.2759 8.34451 20.3421 8.47189C20.4241 8.62463 20.5444 8.75166 20.6903 8.8396L24.0097 10.7971C24.1837 11.923 24.1857 13.0702 24.0155 14.1967H24.0201Z" fill="black"/>
</svg>
