<svg width="25" height="25" viewBox="0 0 25 25" fill="none" xmlns="http://www.w3.org/2000/svg">
<path d="M19.7158 5.33789C18.7813 4.39392 17.6697 3.64357 16.4447 3.12979C15.2198 2.61601 13.9055 2.3489 12.5771 2.34375H12.5C9.8064 2.34375 7.22311 3.41378 5.31845 5.31845C3.41378 7.22311 2.34375 9.8064 2.34375 12.5V17.9688C2.34375 18.5904 2.59068 19.1865 3.03022 19.626C3.46976 20.0656 4.0659 20.3125 4.6875 20.3125H6.25C6.8716 20.3125 7.46774 20.0656 7.90728 19.626C8.34682 19.1865 8.59375 18.5904 8.59375 17.9688V14.0625C8.59375 13.4409 8.34682 12.8448 7.90728 12.4052C7.46774 11.9657 6.8716 11.7188 6.25 11.7188H3.94141C4.09207 10.0898 4.70394 8.5375 5.7053 7.24385C6.70666 5.9502 8.05601 4.96878 9.59521 4.41461C11.1344 3.86045 12.7997 3.7565 14.3959 4.11495C15.992 4.4734 17.453 5.2794 18.6074 6.43848C20.0184 7.85674 20.8864 9.72565 21.0596 11.7188H18.75C18.1284 11.7188 17.5323 11.9657 17.0927 12.4052C16.6532 12.8448 16.4063 13.4409 16.4063 14.0625V17.9688C16.4063 18.5904 16.6532 19.1865 17.0927 19.626C17.5323 20.0656 18.1284 20.3125 18.75 20.3125H21.0938C21.0938 20.9341 20.8468 21.5302 20.4073 21.9698C19.9677 22.4093 19.3716 22.6562 18.75 22.6562H13.2813C13.0741 22.6562 12.8753 22.7386 12.7288 22.8851C12.5823 23.0316 12.5 23.2303 12.5 23.4375C12.5 23.6447 12.5823 23.8434 12.7288 23.9899C12.8753 24.1364 13.0741 24.2188 13.2813 24.2188H18.75C19.786 24.2188 20.7796 23.8072 21.5121 23.0746C22.2447 22.3421 22.6563 21.3485 22.6563 20.3125V12.5C22.6613 11.1715 22.4042 9.85497 21.8997 8.62597C21.3951 7.39696 20.653 6.2796 19.7158 5.33789ZM6.25 13.2812C6.4572 13.2812 6.65591 13.3636 6.80243 13.5101C6.94894 13.6566 7.03125 13.8553 7.03125 14.0625V17.9688C7.03125 18.176 6.94894 18.3747 6.80243 18.5212C6.65591 18.6677 6.4572 18.75 6.25 18.75H4.6875C4.4803 18.75 4.28159 18.6677 4.13507 18.5212C3.98856 18.3747 3.90625 18.176 3.90625 17.9688V13.2812H6.25ZM18.75 18.75C18.5428 18.75 18.3441 18.6677 18.1976 18.5212C18.0511 18.3747 17.9688 18.176 17.9688 17.9688V14.0625C17.9688 13.8553 18.0511 13.6566 18.1976 13.5101C18.3441 13.3636 18.5428 13.2812 18.75 13.2812H21.0938V18.75H18.75Z" fill="black"/>
</svg>
