<svg width="25" height="25" viewBox="0 0 25 25" fill="none" xmlns="http://www.w3.org/2000/svg">
<path d="M12.5 0C10.0277 0 7.61099 0.733112 5.55538 2.10663C3.49976 3.48015 1.89761 5.43238 0.951511 7.71645C0.00541606 10.0005 -0.242126 12.5139 0.24019 14.9386C0.722505 17.3634 1.91301 19.5907 3.66117 21.3388C5.40933 23.087 7.63661 24.2775 10.0614 24.7598C12.4861 25.2421 14.9995 24.9946 17.2835 24.0485C19.5676 23.1024 21.5199 21.5002 22.8934 19.4446C24.2669 17.389 25 14.9723 25 12.5C24.9965 9.18587 23.6784 6.00848 21.335 3.66503C18.9915 1.32158 15.8141 0.00349978 12.5 0ZM12.5 23.0769C10.4081 23.0769 8.36315 22.4566 6.62378 21.2944C4.88441 20.1322 3.52874 18.4803 2.7282 16.5476C1.92766 14.6149 1.7182 12.4883 2.12631 10.4365C2.53443 8.38482 3.54178 6.50019 5.02099 5.02099C6.5002 3.54178 8.38483 2.53442 10.4365 2.12631C12.4883 1.7182 14.6149 1.92765 16.5476 2.7282C18.4803 3.52874 20.1322 4.88441 21.2944 6.62377C22.4566 8.36314 23.0769 10.4081 23.0769 12.5C23.0737 15.3042 21.9584 17.9926 19.9755 19.9755C17.9926 21.9584 15.3042 23.0737 12.5 23.0769ZM14.4231 18.2692C14.4231 18.5242 14.3218 18.7688 14.1415 18.9491C13.9611 19.1295 13.7166 19.2308 13.4615 19.2308C12.9515 19.2308 12.4624 19.0282 12.1017 18.6675C11.7411 18.3069 11.5385 17.8177 11.5385 17.3077V12.5C11.2834 12.5 11.0389 12.3987 10.8586 12.2184C10.6782 12.038 10.5769 11.7935 10.5769 11.5385C10.5769 11.2834 10.6782 11.0389 10.8586 10.8585C11.0389 10.6782 11.2834 10.5769 11.5385 10.5769C12.0485 10.5769 12.5376 10.7795 12.8983 11.1402C13.2589 11.5008 13.4615 11.99 13.4615 12.5V17.3077C13.7166 17.3077 13.9611 17.409 14.1415 17.5893C14.3218 17.7696 14.4231 18.0142 14.4231 18.2692ZM10.5769 7.21154C10.5769 6.92628 10.6615 6.64742 10.82 6.41023C10.9785 6.17305 11.2037 5.98818 11.4673 5.87902C11.7308 5.76985 12.0208 5.74129 12.3006 5.79694C12.5804 5.85259 12.8374 5.98996 13.0391 6.19167C13.2408 6.39338 13.3782 6.65038 13.4338 6.93016C13.4895 7.20994 13.4609 7.49994 13.3518 7.76348C13.2426 8.02703 13.0577 8.25229 12.8205 8.41077C12.5834 8.56925 12.3045 8.65384 12.0192 8.65384C11.6367 8.65384 11.2699 8.50189 10.9994 8.2314C10.7289 7.96092 10.5769 7.59406 10.5769 7.21154Z" fill="black"/>
</svg>
