<svg width="27" height="21" viewBox="0 0 27 21" fill="none" xmlns="http://www.w3.org/2000/svg">
<path d="M27 10.125C27 10.4234 26.8815 10.7095 26.6705 10.9205C26.4595 11.1315 26.1734 11.25 25.875 11.25H1.125C0.826631 11.25 0.540484 11.1315 0.329505 10.9205C0.118527 10.7095 0 10.4234 0 10.125C0 9.82663 0.118527 9.54048 0.329505 9.3295C0.540484 9.11853 0.826631 9 1.125 9H25.875C26.1734 9 26.4595 9.11853 26.6705 9.3295C26.8815 9.54048 27 9.82663 27 10.125ZM1.125 2.25H25.875C26.1734 2.25 26.4595 2.13147 26.6705 1.92049C26.8815 1.70952 27 1.42337 27 1.125C27 0.826631 26.8815 0.540484 26.6705 0.329505C26.4595 0.118527 26.1734 0 25.875 0H1.125C0.826631 0 0.540484 0.118527 0.329505 0.329505C0.118527 0.540484 0 0.826631 0 1.125C0 1.42337 0.118527 1.70952 0.329505 1.92049C0.540484 2.13147 0.826631 2.25 1.125 2.25ZM25.875 18H1.125C0.826631 18 0.540484 18.1185 0.329505 18.3295C0.118527 18.5405 0 18.8266 0 19.125C0 19.4234 0.118527 19.7095 0.329505 19.9205C0.540484 20.1315 0.826631 20.25 1.125 20.25H25.875C26.1734 20.25 26.4595 20.1315 26.6705 19.9205C26.8815 19.7095 27 19.4234 27 19.125C27 18.8266 26.8815 18.5405 26.6705 18.3295C26.4595 18.1185 26.1734 18 25.875 18Z" fill="#232323"/>
</svg>
