<svg width="26" height="23" viewBox="0 0 26 23" fill="none" xmlns="http://www.w3.org/2000/svg">
<path d="M25.7803 3.60453C25.921 3.46092 26 3.26615 26 3.06305C26 2.85996 25.921 2.66518 25.7803 2.52158C25.6397 2.37797 25.4489 2.29729 25.25 2.29729H23.75V0.765763C23.75 0.56267 23.671 0.367895 23.5303 0.224287C23.3897 0.0806783 23.1989 0 23 0C22.8011 0 22.6103 0.0806783 22.4697 0.224287C22.329 0.367895 22.25 0.56267 22.25 0.765763V2.29729H20.75C20.5511 2.29729 20.3603 2.37797 20.2197 2.52158C20.079 2.66518 20 2.85996 20 3.06305C20 3.26615 20.079 3.46092 20.2197 3.60453C20.3603 3.74814 20.5511 3.82882 20.75 3.82882H22.25V5.36034C22.25 5.56344 22.329 5.75821 22.4697 5.90182C22.6103 6.04543 22.8011 6.12611 23 6.12611C23.1989 6.12611 23.3897 6.04543 23.5303 5.90182C23.671 5.75821 23.75 5.56344 23.75 5.36034V3.82882H25.25C25.4489 3.82882 25.6397 3.74814 25.7803 3.60453Z" fill="#F7F7F7"/>
<path d="M22.2003 15.927C22.1215 15.9874 22.0318 16.0313 21.9364 16.0562C21.841 16.0812 21.7417 16.0867 21.6442 16.0725C21.5467 16.0583 21.4529 16.0246 21.3682 15.9733C21.2834 15.9221 21.2094 15.8543 21.1503 15.7739C20.6982 15.1535 20.1098 14.6501 19.4324 14.3043C18.7551 13.9585 18.0076 13.7799 17.2503 13.7829C17.1028 13.7829 16.9586 13.7385 16.8357 13.6552C16.7128 13.572 16.6167 13.4536 16.5593 13.3148C16.5204 13.2206 16.5004 13.1194 16.5004 13.0171C16.5004 12.9149 16.5204 12.8137 16.5593 12.7194C16.6167 12.5807 16.7128 12.4623 16.8357 12.3791C16.9586 12.2958 17.1028 12.2514 17.2503 12.2514C17.6711 12.2513 18.0835 12.1308 18.4406 11.9035C18.7976 11.6761 19.0851 11.3511 19.2704 10.9653C19.4556 10.5795 19.5312 10.1484 19.4885 9.72097C19.4458 9.29353 19.2865 8.88688 19.0288 8.54721C18.7711 8.20755 18.4253 7.94848 18.0306 7.79944C17.6359 7.6504 17.2082 7.61736 16.796 7.70407C16.3838 7.79078 16.0038 7.99377 15.6989 8.28998C15.3941 8.58619 15.1767 8.96375 15.0715 9.37977C15.0469 9.47718 15.0037 9.5687 14.9445 9.64908C14.8852 9.72946 14.811 9.79714 14.7261 9.84825C14.6413 9.89936 14.5474 9.9329 14.4498 9.94695C14.3522 9.961 14.2529 9.9553 14.1575 9.93016C14.0621 9.90502 13.9724 9.86093 13.8937 9.80043C13.815 9.73992 13.7487 9.66417 13.6986 9.57751C13.6486 9.49085 13.6157 9.39497 13.602 9.29534C13.5882 9.19572 13.5938 9.0943 13.6184 8.99688C13.7644 8.41999 14.0403 7.88586 14.4241 7.43698C14.8079 6.9881 15.289 6.63687 15.8291 6.41124C16.3692 6.1856 16.9534 6.09179 17.5353 6.13727C18.1172 6.18274 18.6807 6.36625 19.1809 6.67319C19.681 6.98012 20.1042 7.40202 20.4166 7.90531C20.729 8.40859 20.922 8.97937 20.9803 9.57224C21.0387 10.1651 20.9607 10.7637 20.7526 11.3204C20.5444 11.877 20.2119 12.3764 19.7815 12.7788C20.8014 13.2296 21.6879 13.9451 22.3531 14.854C22.4122 14.9347 22.4551 15.0264 22.4794 15.1241C22.5037 15.2217 22.5089 15.3232 22.4947 15.4229C22.4805 15.5226 22.4472 15.6184 22.3967 15.7049C22.3462 15.7914 22.2794 15.8669 22.2003 15.927ZM17.149 21.8234C17.2033 21.9106 17.2397 22.008 17.2562 22.1099C17.2726 22.2119 17.2686 22.3161 17.2446 22.4164C17.2205 22.5167 17.1768 22.611 17.1161 22.6937C17.0554 22.7763 16.979 22.8455 16.8914 22.8972C16.8039 22.9489 16.7069 22.982 16.6065 22.9944C16.5061 23.0069 16.4043 22.9984 16.3071 22.9697C16.21 22.9409 16.1195 22.8924 16.0412 22.827C15.963 22.7616 15.8984 22.6807 15.8515 22.5892C15.3791 21.7724 14.7062 21.0954 13.8993 20.6252C13.0924 20.1549 12.1794 19.9076 11.2503 19.9076C10.3212 19.9076 9.40816 20.1549 8.60126 20.6252C7.79436 21.0954 7.12149 21.7724 6.64903 22.5892C6.60215 22.6807 6.53762 22.7616 6.45932 22.827C6.38102 22.8924 6.29058 22.9409 6.19344 22.9697C6.09629 22.9984 5.99445 23.0069 5.89403 22.9944C5.79362 22.982 5.69671 22.9489 5.60914 22.8972C5.52156 22.8455 5.44513 22.7763 5.38445 22.6937C5.32376 22.611 5.28007 22.5167 5.25601 22.4164C5.23194 22.3161 5.228 22.2119 5.24441 22.1099C5.26083 22.008 5.29727 21.9106 5.35153 21.8234C6.07866 20.5478 7.18734 19.544 8.51466 18.9595C7.76778 18.3756 7.21887 17.5675 6.9451 16.6486C6.67132 15.7298 6.68644 14.7464 6.98833 13.8368C7.29022 12.9272 7.8637 12.137 8.62816 11.5774C9.39262 11.0178 10.3096 10.7168 11.2503 10.7168C12.1909 10.7168 13.1079 11.0178 13.8724 11.5774C14.6369 12.137 15.2103 12.9272 15.5122 13.8368C15.8141 14.7464 15.8292 15.7298 15.5555 16.6486C15.2817 17.5675 14.7328 18.3756 13.9859 18.9595C15.3132 19.544 16.4219 20.5478 17.149 21.8234ZM11.2503 18.3775C11.8436 18.3775 12.4236 18.1978 12.917 17.8613C13.4103 17.5247 13.7949 17.0463 14.0219 16.4866C14.249 15.9269 14.3084 15.311 14.1926 14.7169C14.0769 14.1227 13.7912 13.5769 13.3716 13.1485C12.952 12.7201 12.4175 12.4284 11.8356 12.3102C11.2536 12.192 10.6504 12.2527 10.1022 12.4845C9.55406 12.7164 9.08552 13.109 8.75588 13.6127C8.42623 14.1164 8.25028 14.7086 8.25028 15.3144C8.25028 16.1268 8.56635 16.9059 9.12896 17.4803C9.69157 18.0548 10.4546 18.3775 11.2503 18.3775ZM6.00028 13.0171C6.00028 12.814 5.92127 12.6193 5.78061 12.4757C5.63996 12.3321 5.4492 12.2514 5.25028 12.2514C4.82947 12.2513 4.41709 12.1308 4.06 11.9035C3.70292 11.6761 3.41543 11.3511 3.23019 10.9653C3.04495 10.5795 2.96939 10.1484 3.01209 9.72097C3.0548 9.29353 3.21405 8.88688 3.47176 8.54721C3.72947 8.20755 4.07531 7.94848 4.47 7.79944C4.86469 7.6504 5.29241 7.61736 5.70457 7.70407C6.11672 7.79078 6.4968 7.99377 6.80164 8.28998C7.10647 8.58619 7.32383 8.96375 7.42903 9.37977C7.47876 9.57651 7.603 9.74503 7.77442 9.84825C7.94584 9.95147 8.1504 9.98093 8.3431 9.93016C8.53579 9.87938 8.70084 9.75253 8.80194 9.57751C8.90303 9.40249 8.93189 9.19363 8.88216 8.99688C8.73614 8.41999 8.46026 7.88586 8.07648 7.43698C7.6927 6.9881 7.21161 6.63687 6.67149 6.41124C6.13137 6.1856 5.54712 6.09179 4.96524 6.13727C4.38336 6.18274 3.81991 6.36625 3.31972 6.67319C2.81952 6.98012 2.39639 7.40202 2.08399 7.90531C1.77159 8.40859 1.57855 8.97937 1.52022 9.57224C1.4619 10.1651 1.5399 10.7637 1.74801 11.3204C1.95613 11.877 2.28862 12.3764 2.71903 12.7788C1.70024 13.2301 0.814704 13.9455 0.150284 14.854C0.0308127 15.0165 -0.0205517 15.2208 0.00749082 15.4219C0.0355334 15.623 0.140686 15.8046 0.299816 15.9266C0.458946 16.0485 0.659018 16.101 0.856019 16.0724C1.05302 16.0437 1.23081 15.9364 1.35028 15.7739C1.80233 15.1535 2.39073 14.6501 3.06812 14.3043C3.74551 13.9585 4.49295 13.7799 5.25028 13.7829C5.4492 13.7829 5.63996 13.7022 5.78061 13.5586C5.92127 13.415 6.00028 13.2202 6.00028 13.0171Z" fill="#F7F7F7"/>
</svg>
