<svg width="29" height="29" viewBox="0 0 29 29" fill="none" xmlns="http://www.w3.org/2000/svg">
<path d="M14.5 0C11.6322 0 8.82875 0.85041 6.44424 2.44369C4.05972 4.03697 2.20122 6.30156 1.10375 8.95109C0.00628262 11.6006 -0.280866 14.5161 0.27862 17.3288C0.838105 20.1415 2.2191 22.7252 4.24696 24.753C6.27482 26.7809 8.85847 28.1619 11.6712 28.7214C14.4839 29.2809 17.3994 28.9937 20.0489 27.8962C22.6984 26.7988 24.963 24.9403 26.5563 22.5558C28.1496 20.1712 29 17.3678 29 14.5C28.9959 10.6556 27.467 6.96983 24.7486 4.25143C22.0302 1.53304 18.3444 0.00405975 14.5 0ZM6.98231 24.1899C7.7892 22.928 8.90078 21.8894 10.2146 21.1701C11.5284 20.4507 13.0021 20.0737 14.5 20.0737C15.9979 20.0737 17.4716 20.4507 18.7854 21.1701C20.0992 21.8894 21.2108 22.928 22.0177 24.1899C19.8683 25.8616 17.223 26.7691 14.5 26.7691C11.777 26.7691 9.13175 25.8616 6.98231 24.1899ZM10.0385 13.3846C10.0385 12.5022 10.3001 11.6396 10.7904 10.9059C11.2806 10.1722 11.9774 9.60037 12.7926 9.26269C13.6079 8.925 14.505 8.83665 15.3704 9.0088C16.2359 9.18095 17.0308 9.60587 17.6548 10.2298C18.2787 10.8538 18.7037 11.6488 18.8758 12.5142C19.048 13.3797 18.9596 14.2767 18.6219 15.092C18.2842 15.9072 17.7124 16.604 16.9787 17.0942C16.245 17.5845 15.3824 17.8461 14.5 17.8461C13.3167 17.8461 12.1819 17.3761 11.3452 16.5394C10.5085 15.7027 10.0385 14.5679 10.0385 13.3846ZM23.6685 22.6437C22.4245 20.8411 20.6753 19.4465 18.6409 18.6353C19.7337 17.7745 20.5311 16.5947 20.9223 15.2597C21.3134 13.9247 21.2789 12.5011 20.8234 11.1867C20.3679 9.87227 19.5142 8.73246 18.3809 7.92577C17.2476 7.11907 15.8911 6.68558 14.5 6.68558C13.1089 6.68558 11.7524 7.11907 10.6191 7.92577C9.48581 8.73246 8.63206 9.87227 8.17659 11.1867C7.72112 12.5011 7.68656 13.9247 8.07772 15.2597C8.46888 16.5947 9.26632 17.7745 10.3591 18.6353C8.3247 19.4465 6.57552 20.8411 5.33154 22.6437C3.75964 20.876 2.73224 18.6917 2.37305 16.3536C2.01386 14.0156 2.3382 11.6235 3.30701 9.46557C4.27582 7.30759 5.84779 5.47567 7.83364 4.19041C9.81948 2.90515 12.1345 2.22135 14.5 2.22135C16.8655 2.22135 19.1805 2.90515 21.1664 4.19041C23.1522 5.47567 24.7242 7.30759 25.693 9.46557C26.6618 11.6235 26.9861 14.0156 26.627 16.3536C26.2678 18.6917 25.2404 20.876 23.6685 22.6437Z" fill="black"/>
</svg>
