<svg width="46" height="59" viewBox="0 0 46 59" fill="none" xmlns="http://www.w3.org/2000/svg">
<path d="M34.7738 10.3505C31.45 6.56835 27.7096 3.16202 23.6215 0.194325C23.4377 0.0678307 23.2188 0 22.9945 0C22.7703 0 22.5514 0.0678307 22.3675 0.194325C18.2833 3.16265 14.5466 6.56895 11.2262 10.3505C3.87988 18.6697 0 27.4016 0 35.6074C0 41.617 2.42321 47.3805 6.73654 51.6299C11.0499 55.8794 16.9 58.2667 23 58.2667C29.1 58.2667 34.9501 55.8794 39.2635 51.6299C43.5768 47.3805 46 41.617 46 35.6074C46 27.4016 42.1201 18.6697 34.7738 10.3505ZM23 56.1086C17.4828 56.1029 12.1931 53.9412 8.29185 50.0977C4.39056 46.2542 2.19627 41.0429 2.19048 35.6074C2.19048 25.9233 7.98155 17.3182 12.8417 11.8072C15.9008 8.35387 19.304 5.2117 23 2.42788C26.6966 5.2151 30.0997 8.3609 33.1583 11.818C38.0185 17.3182 43.8095 25.9233 43.8095 35.6074C43.8037 41.0429 41.6094 46.2542 37.7082 50.0977C33.8069 53.9412 28.5173 56.1029 23 56.1086Z" fill="#currentColor"/>
<path d="M23 56.1086C17.4828 56.1029 12.1931 53.9412 8.29185 50.0977C4.39056 46.2542 2.19627 41.0429 2.19048 35.6074C2.19048 25.9233 7.98155 17.3182 12.8417 11.8072C15.9008 8.35387 19.304 5.2117 23 2.42788C26.6966 5.2151 30.0997 8.3609 33.1583 11.818C38.0185 17.3182 43.8095 25.9233 43.8095 35.6074C43.8037 41.0429 41.6094 46.2542 37.7082 50.0977C33.8069 53.9412 28.5173 56.1029 23 56.1086Z" fill="#currentColor"/>
<path d="M36.9103 33.2038C36.9103 33.5088 36.7892 33.8013 36.5735 34.017C36.3578 34.2327 36.0653 34.3538 35.7603 34.3538H24.2603V45.8538C24.2603 46.1588 24.1391 46.4513 23.9235 46.667C23.7078 46.8827 23.4153 47.0038 23.1103 47.0038C22.8053 47.0038 22.5128 46.8827 22.2971 46.667C22.0815 46.4513 21.9603 46.1588 21.9603 45.8538V34.3538H10.4603C10.1553 34.3538 9.8628 34.2327 9.64713 34.017C9.43146 33.8013 9.3103 33.5088 9.3103 33.2038C9.3103 32.8988 9.43146 32.6063 9.64713 32.3906C9.8628 32.175 10.1553 32.0538 10.4603 32.0538H21.9603V20.5538C21.9603 20.2488 22.0815 19.9563 22.2971 19.7406C22.5128 19.525 22.8053 19.4038 23.1103 19.4038C23.4153 19.4038 23.7078 19.525 23.9235 19.7406C24.1391 19.9563 24.2603 20.2488 24.2603 20.5538V32.0538H35.7603C36.0653 32.0538 36.3578 32.175 36.5735 32.3906C36.7892 32.6063 36.9103 32.8988 36.9103 33.2038Z" fill="#F7F7F7"/>
</svg>
